<mxfile host="app.diagrams.net" agent="Mozilla/5.0 (Windows NT 10.0; Win64; x64; rv:130.0) Gecko/20100101 Firefox/130.0" version="24.7.16">
  <diagram id="7q6WzZqFf9v9yzIv_zda" name="Use case">
    <mxGraphModel dx="1358" dy="565" grid="1" gridSize="10" guides="1" tooltips="1" connect="1" arrows="1" fold="1" page="1" pageScale="1" pageWidth="850" pageHeight="1100" math="0" shadow="0">
      <root>
        <mxCell id="0" />
        <mxCell id="1" parent="0" />
        <mxCell id="SSoZlEEdxV4zL4xD8buy-2" value="&amp;nbsp;&amp;nbsp;&amp;nbsp;&amp;nbsp;&amp;nbsp;&amp;nbsp;&amp;nbsp;&amp;nbsp;&amp;nbsp; Researcher" style="shape=umlActor;verticalLabelPosition=bottom;verticalAlign=top;html=1;outlineConnect=0;fillColor=#FFFFFF;" parent="1" vertex="1">
          <mxGeometry x="102" y="175" width="30" height="60" as="geometry" />
        </mxCell>
        <mxCell id="SSoZlEEdxV4zL4xD8buy-3" value="" style="endArrow=none;html=1;exitX=0.5;exitY=0.5;exitDx=0;exitDy=0;exitPerimeter=0;entryX=0;entryY=0.5;entryDx=0;entryDy=0;" parent="1" edge="1" target="SSoZlEEdxV4zL4xD8buy-4" source="SSoZlEEdxV4zL4xD8buy-2">
          <mxGeometry width="50" height="50" relative="1" as="geometry">
            <mxPoint x="110" y="212" as="sourcePoint" />
            <mxPoint x="200" y="212" as="targetPoint" />
          </mxGeometry>
        </mxCell>
        <mxCell id="okeo2Aa4OqrN3XAgRoa3-2" style="rounded=1;orthogonalLoop=1;jettySize=auto;html=1;dashed=1;strokeWidth=1;endFill=0;endArrow=open;exitX=0.792;exitY=0.084;exitDx=0;exitDy=0;entryX=0.393;entryY=1.052;entryDx=0;entryDy=0;entryPerimeter=0;exitPerimeter=0;" parent="1" source="QrRaKI6YHNApYZS7EBK--49" target="QrRaKI6YHNApYZS7EBK--21" edge="1">
          <mxGeometry relative="1" as="geometry">
            <mxPoint x="480.00000000000006" y="467.06" as="sourcePoint" />
            <mxPoint x="600" y="392.94" as="targetPoint" />
          </mxGeometry>
        </mxCell>
        <mxCell id="SSoZlEEdxV4zL4xD8buy-4" value="Shared Folder Repo" style="ellipse;whiteSpace=wrap;html=1;fillColor=#FFFFFF;" parent="1" vertex="1">
          <mxGeometry x="190" y="157" width="90" height="60" as="geometry" />
        </mxCell>
        <mxCell id="SSoZlEEdxV4zL4xD8buy-5" value="Regular Update" style="ellipse;whiteSpace=wrap;html=1;fillColor=#FFFFFF;" parent="1" vertex="1">
          <mxGeometry x="400" y="670" width="120" height="40" as="geometry" />
        </mxCell>
        <mxCell id="okeo2Aa4OqrN3XAgRoa3-1" value="Track Activity" style="ellipse;whiteSpace=wrap;html=1;" parent="1" vertex="1">
          <mxGeometry x="100" y="303" width="110" height="44" as="geometry" />
        </mxCell>
        <mxCell id="okeo2Aa4OqrN3XAgRoa3-4" value="Impersonator" style="shape=umlActor;verticalLabelPosition=bottom;verticalAlign=top;html=1;outlineConnect=0;fillColor=#000000;" parent="1" vertex="1">
          <mxGeometry x="720" y="290" width="30" height="60" as="geometry" />
        </mxCell>
        <mxCell id="okeo2Aa4OqrN3XAgRoa3-5" style="rounded=0;orthogonalLoop=1;jettySize=auto;html=1;dashed=1;endArrow=open;endFill=0;strokeWidth=1;" parent="1" edge="1">
          <mxGeometry relative="1" as="geometry">
            <mxPoint x="282" y="180" as="targetPoint" />
            <mxPoint x="472" y="178.5" as="sourcePoint" />
          </mxGeometry>
        </mxCell>
        <mxCell id="okeo2Aa4OqrN3XAgRoa3-6" value="&amp;lt;&amp;lt;Threatens&amp;gt;&amp;gt;" style="edgeLabel;html=1;align=center;verticalAlign=middle;resizable=0;points=[];" parent="okeo2Aa4OqrN3XAgRoa3-5" vertex="1" connectable="0">
          <mxGeometry x="0.1143" y="1" relative="1" as="geometry">
            <mxPoint y="9" as="offset" />
          </mxGeometry>
        </mxCell>
        <mxCell id="QrRaKI6YHNApYZS7EBK--2" value="Set Password / Permission" style="ellipse;whiteSpace=wrap;html=1;" vertex="1" parent="1">
          <mxGeometry x="260" y="350" width="120" height="50" as="geometry" />
        </mxCell>
        <mxCell id="okeo2Aa4OqrN3XAgRoa3-7" value="Unauthorized File Access" style="ellipse;whiteSpace=wrap;html=1;fillColor=#000000;fontColor=#FFFFFF;" parent="1" vertex="1">
          <mxGeometry x="470" y="157" width="120" height="80" as="geometry" />
        </mxCell>
        <mxCell id="QrRaKI6YHNApYZS7EBK--12" value="" style="endArrow=none;html=1;rounded=0;entryX=0.318;entryY=0.034;entryDx=0;entryDy=0;entryPerimeter=0;exitX=0.558;exitY=0.684;exitDx=0;exitDy=0;exitPerimeter=0;" edge="1" parent="1" source="SSoZlEEdxV4zL4xD8buy-2" target="okeo2Aa4OqrN3XAgRoa3-1">
          <mxGeometry width="50" height="50" relative="1" as="geometry">
            <mxPoint x="100" y="210" as="sourcePoint" />
            <mxPoint x="220" y="320" as="targetPoint" />
          </mxGeometry>
        </mxCell>
        <mxCell id="QrRaKI6YHNApYZS7EBK--15" value="File Access Link" style="ellipse;whiteSpace=wrap;html=1;fillColor=#FFFFFF;" vertex="1" parent="1">
          <mxGeometry x="300" y="260" width="90" height="60" as="geometry" />
        </mxCell>
        <mxCell id="QrRaKI6YHNApYZS7EBK--17" value="&amp;lt;&amp;lt;Includes&amp;gt;&amp;gt;" style="edgeLabel;html=1;align=center;verticalAlign=middle;resizable=0;points=[];" vertex="1" connectable="0" parent="1">
          <mxGeometry x="309.9957142857142" y="235" as="geometry">
            <mxPoint x="6" y="-1" as="offset" />
          </mxGeometry>
        </mxCell>
        <mxCell id="QrRaKI6YHNApYZS7EBK--21" value="Brute Force Attack" style="ellipse;whiteSpace=wrap;html=1;fillColor=#000000;fontColor=#FFFFFF;" vertex="1" parent="1">
          <mxGeometry x="530" y="280" width="120" height="53" as="geometry" />
        </mxCell>
        <mxCell id="QrRaKI6YHNApYZS7EBK--22" value="" style="endArrow=classic;html=1;rounded=0;entryX=0.7;entryY=-0.075;entryDx=0;entryDy=0;entryPerimeter=0;exitX=0.417;exitY=0.975;exitDx=0;exitDy=0;exitPerimeter=0;dashed=1;" edge="1" parent="1" source="okeo2Aa4OqrN3XAgRoa3-7" target="QrRaKI6YHNApYZS7EBK--21">
          <mxGeometry width="50" height="50" relative="1" as="geometry">
            <mxPoint x="580" y="170" as="sourcePoint" />
            <mxPoint x="630" y="120" as="targetPoint" />
          </mxGeometry>
        </mxCell>
        <mxCell id="QrRaKI6YHNApYZS7EBK--23" value="&amp;lt;&amp;lt;Includes&amp;gt;&amp;gt;" style="edgeLabel;html=1;align=center;verticalAlign=middle;resizable=0;points=[];" vertex="1" connectable="0" parent="1">
          <mxGeometry x="589.9957142857143" y="260" as="geometry">
            <mxPoint x="-18" y="-1" as="offset" />
          </mxGeometry>
        </mxCell>
        <mxCell id="QrRaKI6YHNApYZS7EBK--26" style="rounded=1;orthogonalLoop=1;jettySize=auto;html=1;dashed=1;strokeWidth=1;endFill=0;endArrow=open;exitX=0.827;exitY=0.009;exitDx=0;exitDy=0;exitPerimeter=0;" edge="1" parent="1" source="QrRaKI6YHNApYZS7EBK--2">
          <mxGeometry relative="1" as="geometry">
            <mxPoint x="388" y="445" as="sourcePoint" />
            <mxPoint x="490" y="230" as="targetPoint" />
          </mxGeometry>
        </mxCell>
        <mxCell id="QrRaKI6YHNApYZS7EBK--27" value="&amp;lt;&amp;lt;Prevents&amp;gt;&amp;gt;" style="edgeLabel;html=1;align=center;verticalAlign=middle;resizable=0;points=[];" vertex="1" connectable="0" parent="1">
          <mxGeometry x="439.99571428571426" y="280" as="geometry">
            <mxPoint x="-8" y="-3" as="offset" />
          </mxGeometry>
        </mxCell>
        <mxCell id="QrRaKI6YHNApYZS7EBK--30" value="Phishing / Social Engineering" style="ellipse;whiteSpace=wrap;html=1;fillColor=#000000;fontColor=#FFFFFF;" vertex="1" parent="1">
          <mxGeometry x="570" y="400" width="120" height="53" as="geometry" />
        </mxCell>
        <mxCell id="QrRaKI6YHNApYZS7EBK--31" value="" style="endArrow=classic;html=1;rounded=0;entryX=0.324;entryY=-0.092;entryDx=0;entryDy=0;entryPerimeter=0;dashed=1;exitX=0.5;exitY=1;exitDx=0;exitDy=0;" edge="1" parent="1" source="QrRaKI6YHNApYZS7EBK--2" target="QrRaKI6YHNApYZS7EBK--49">
          <mxGeometry width="50" height="50" relative="1" as="geometry">
            <mxPoint x="350" y="400" as="sourcePoint" />
            <mxPoint x="410" y="450" as="targetPoint" />
          </mxGeometry>
        </mxCell>
        <mxCell id="QrRaKI6YHNApYZS7EBK--32" value="" style="endArrow=classic;html=1;rounded=0;dashed=1;exitX=0.5;exitY=1;exitDx=0;exitDy=0;" edge="1" parent="1" source="SSoZlEEdxV4zL4xD8buy-4">
          <mxGeometry width="50" height="50" relative="1" as="geometry">
            <mxPoint x="245" y="250" as="sourcePoint" />
            <mxPoint x="295" y="354" as="targetPoint" />
          </mxGeometry>
        </mxCell>
        <mxCell id="QrRaKI6YHNApYZS7EBK--33" value="" style="endArrow=classic;html=1;rounded=0;dashed=1;exitX=0.33;exitY=-0.071;exitDx=0;exitDy=0;exitPerimeter=0;" edge="1" parent="1" source="QrRaKI6YHNApYZS7EBK--15">
          <mxGeometry width="50" height="50" relative="1" as="geometry">
            <mxPoint x="340" y="270" as="sourcePoint" />
            <mxPoint x="280" y="190" as="targetPoint" />
          </mxGeometry>
        </mxCell>
        <mxCell id="QrRaKI6YHNApYZS7EBK--34" value="" style="endArrow=classic;html=1;rounded=0;dashed=1;entryX=1;entryY=0.5;entryDx=0;entryDy=0;" edge="1" parent="1" target="okeo2Aa4OqrN3XAgRoa3-1">
          <mxGeometry width="50" height="50" relative="1" as="geometry">
            <mxPoint x="300" y="302" as="sourcePoint" />
            <mxPoint x="230" y="302" as="targetPoint" />
          </mxGeometry>
        </mxCell>
        <mxCell id="QrRaKI6YHNApYZS7EBK--35" value="&amp;lt;&amp;lt;Includes&amp;gt;&amp;gt;" style="edgeLabel;html=1;align=center;verticalAlign=middle;resizable=0;points=[];" vertex="1" connectable="0" parent="1">
          <mxGeometry x="244.9957142857142" y="303" as="geometry">
            <mxPoint x="-12" y="1" as="offset" />
          </mxGeometry>
        </mxCell>
        <mxCell id="QrRaKI6YHNApYZS7EBK--36" value="" style="endArrow=classic;html=1;rounded=0;dashed=1;entryX=0.5;entryY=0;entryDx=0;entryDy=0;" edge="1" parent="1" target="okeo2Aa4OqrN3XAgRoa3-1">
          <mxGeometry width="50" height="50" relative="1" as="geometry">
            <mxPoint x="210" y="210" as="sourcePoint" />
            <mxPoint x="200" y="300" as="targetPoint" />
          </mxGeometry>
        </mxCell>
        <mxCell id="QrRaKI6YHNApYZS7EBK--37" style="rounded=0;orthogonalLoop=1;jettySize=auto;html=1;dashed=1;endArrow=open;endFill=0;strokeWidth=1;exitX=-0.029;exitY=0.68;exitDx=0;exitDy=0;exitPerimeter=0;" edge="1" parent="1" source="okeo2Aa4OqrN3XAgRoa3-7" target="QrRaKI6YHNApYZS7EBK--15">
          <mxGeometry relative="1" as="geometry">
            <mxPoint x="292" y="195" as="targetPoint" />
            <mxPoint x="482" y="193.5" as="sourcePoint" />
          </mxGeometry>
        </mxCell>
        <mxCell id="QrRaKI6YHNApYZS7EBK--38" value="&amp;lt;&amp;lt;Threatens&amp;gt;&amp;gt;" style="edgeLabel;html=1;align=center;verticalAlign=middle;resizable=0;points=[];" vertex="1" connectable="0" parent="QrRaKI6YHNApYZS7EBK--37">
          <mxGeometry x="0.1143" y="1" relative="1" as="geometry">
            <mxPoint x="-7" y="-8" as="offset" />
          </mxGeometry>
        </mxCell>
        <mxCell id="QrRaKI6YHNApYZS7EBK--39" value="" style="endArrow=classic;html=1;rounded=0;entryX=1.029;entryY=0.346;entryDx=0;entryDy=0;entryPerimeter=0;dashed=1;" edge="1" parent="1" target="QrRaKI6YHNApYZS7EBK--2">
          <mxGeometry width="50" height="50" relative="1" as="geometry">
            <mxPoint x="540" y="320" as="sourcePoint" />
            <mxPoint x="480" y="370" as="targetPoint" />
          </mxGeometry>
        </mxCell>
        <mxCell id="QrRaKI6YHNApYZS7EBK--40" value="&amp;lt;&amp;lt;Threatens&amp;gt;&amp;gt;" style="edgeLabel;html=1;align=center;verticalAlign=middle;resizable=0;points=[];" vertex="1" connectable="0" parent="1">
          <mxGeometry x="489.99571428571426" y="340" as="geometry">
            <mxPoint x="-18" y="-1" as="offset" />
          </mxGeometry>
        </mxCell>
        <mxCell id="QrRaKI6YHNApYZS7EBK--41" value="&amp;lt;&amp;lt;Includes&amp;gt;&amp;gt;" style="edgeLabel;html=1;align=center;verticalAlign=middle;resizable=0;points=[];" vertex="1" connectable="0" parent="1">
          <mxGeometry x="259.9957142857142" y="260" as="geometry">
            <mxPoint x="-12" y="1" as="offset" />
          </mxGeometry>
        </mxCell>
        <mxCell id="QrRaKI6YHNApYZS7EBK--42" value="&amp;lt;&amp;lt;Includes&amp;gt;&amp;gt;" style="edgeLabel;html=1;align=center;verticalAlign=middle;resizable=0;points=[];" vertex="1" connectable="0" parent="1">
          <mxGeometry x="359.9957142857142" y="420" as="geometry">
            <mxPoint x="-12" y="1" as="offset" />
          </mxGeometry>
        </mxCell>
        <mxCell id="QrRaKI6YHNApYZS7EBK--44" value="" style="endArrow=classic;html=1;rounded=0;entryX=0.5;entryY=0;entryDx=0;entryDy=0;exitX=0.417;exitY=0.975;exitDx=0;exitDy=0;exitPerimeter=0;dashed=1;" edge="1" parent="1" target="QrRaKI6YHNApYZS7EBK--30">
          <mxGeometry width="50" height="50" relative="1" as="geometry">
            <mxPoint x="598" y="336" as="sourcePoint" />
            <mxPoint x="692" y="379" as="targetPoint" />
          </mxGeometry>
        </mxCell>
        <mxCell id="QrRaKI6YHNApYZS7EBK--45" value="&amp;lt;&amp;lt;Includes&amp;gt;&amp;gt;" style="edgeLabel;html=1;align=center;verticalAlign=middle;resizable=0;points=[];" vertex="1" connectable="0" parent="1">
          <mxGeometry x="649.9957142857143" y="363" as="geometry">
            <mxPoint x="-18" y="-1" as="offset" />
          </mxGeometry>
        </mxCell>
        <mxCell id="QrRaKI6YHNApYZS7EBK--46" value="&amp;lt;&amp;lt;Prevents&amp;gt;&amp;gt;" style="edgeLabel;html=1;align=center;verticalAlign=middle;resizable=0;points=[];" vertex="1" connectable="0" parent="1">
          <mxGeometry x="529.9957142857143" y="390" as="geometry">
            <mxPoint x="-8" y="-3" as="offset" />
          </mxGeometry>
        </mxCell>
        <mxCell id="QrRaKI6YHNApYZS7EBK--47" style="rounded=1;orthogonalLoop=1;jettySize=auto;html=1;dashed=1;strokeWidth=1;endFill=0;endArrow=open;exitX=0.739;exitY=-0.08;exitDx=0;exitDy=0;entryX=0;entryY=1;entryDx=0;entryDy=0;exitPerimeter=0;" edge="1" parent="1" source="QrRaKI6YHNApYZS7EBK--61" target="QrRaKI6YHNApYZS7EBK--30">
          <mxGeometry relative="1" as="geometry">
            <mxPoint x="442" y="489" as="sourcePoint" />
            <mxPoint x="587" y="362" as="targetPoint" />
          </mxGeometry>
        </mxCell>
        <mxCell id="QrRaKI6YHNApYZS7EBK--48" value="&amp;lt;&amp;lt;Prevents&amp;gt;&amp;gt;" style="edgeLabel;html=1;align=center;verticalAlign=middle;resizable=0;points=[];" vertex="1" connectable="0" parent="1">
          <mxGeometry x="539.9957142857143" y="510" as="geometry">
            <mxPoint x="-8" y="-3" as="offset" />
          </mxGeometry>
        </mxCell>
        <mxCell id="QrRaKI6YHNApYZS7EBK--49" value="Password Expiration date" style="ellipse;whiteSpace=wrap;html=1;fillColor=#FFFFFF;" vertex="1" parent="1">
          <mxGeometry x="320" y="465" width="120" height="40" as="geometry" />
        </mxCell>
        <mxCell id="QrRaKI6YHNApYZS7EBK--51" value="" style="endArrow=classic;html=1;rounded=0;entryX=0.333;entryY=0;entryDx=0;entryDy=0;entryPerimeter=0;dashed=1;exitX=0.5;exitY=1;exitDx=0;exitDy=0;" edge="1" parent="1" target="QrRaKI6YHNApYZS7EBK--61">
          <mxGeometry width="50" height="50" relative="1" as="geometry">
            <mxPoint x="374" y="505" as="sourcePoint" />
            <mxPoint x="425" y="574" as="targetPoint" />
          </mxGeometry>
        </mxCell>
        <mxCell id="QrRaKI6YHNApYZS7EBK--52" value="&amp;lt;&amp;lt;Includes&amp;gt;&amp;gt;" style="edgeLabel;html=1;align=center;verticalAlign=middle;resizable=0;points=[];" vertex="1" connectable="0" parent="1">
          <mxGeometry x="399.9957142857142" y="525" as="geometry">
            <mxPoint x="-12" y="1" as="offset" />
          </mxGeometry>
        </mxCell>
        <mxCell id="QrRaKI6YHNApYZS7EBK--53" value="Ransomware" style="ellipse;whiteSpace=wrap;html=1;fillColor=#000000;fontColor=#FFFFFF;" vertex="1" parent="1">
          <mxGeometry x="600" y="524" width="120" height="53" as="geometry" />
        </mxCell>
        <mxCell id="QrRaKI6YHNApYZS7EBK--54" style="rounded=1;orthogonalLoop=1;jettySize=auto;html=1;dashed=1;strokeWidth=1;endFill=0;endArrow=open;exitX=0.998;exitY=0.275;exitDx=0;exitDy=0;entryX=0.5;entryY=1;entryDx=0;entryDy=0;exitPerimeter=0;" edge="1" parent="1" source="SSoZlEEdxV4zL4xD8buy-5" target="QrRaKI6YHNApYZS7EBK--53">
          <mxGeometry relative="1" as="geometry">
            <mxPoint x="520" y="600" as="sourcePoint" />
            <mxPoint x="597" y="455" as="targetPoint" />
          </mxGeometry>
        </mxCell>
        <mxCell id="QrRaKI6YHNApYZS7EBK--55" value="" style="endArrow=classic;html=1;rounded=0;entryX=1.029;entryY=0.346;entryDx=0;entryDy=0;entryPerimeter=0;dashed=1;exitX=-0.002;exitY=0.694;exitDx=0;exitDy=0;exitPerimeter=0;" edge="1" parent="1" source="QrRaKI6YHNApYZS7EBK--30">
          <mxGeometry width="50" height="50" relative="1" as="geometry">
            <mxPoint x="591" y="429" as="sourcePoint" />
            <mxPoint x="434" y="476" as="targetPoint" />
          </mxGeometry>
        </mxCell>
        <mxCell id="QrRaKI6YHNApYZS7EBK--56" value="&amp;lt;&amp;lt;Threatens&amp;gt;&amp;gt;" style="edgeLabel;html=1;align=center;verticalAlign=middle;resizable=0;points=[];" vertex="1" connectable="0" parent="1">
          <mxGeometry x="540.9957142857143" y="449" as="geometry">
            <mxPoint x="-18" y="-1" as="offset" />
          </mxGeometry>
        </mxCell>
        <mxCell id="QrRaKI6YHNApYZS7EBK--57" value="" style="endArrow=classic;html=1;rounded=0;entryX=0.5;entryY=0;entryDx=0;entryDy=0;exitX=0.638;exitY=1.012;exitDx=0;exitDy=0;exitPerimeter=0;dashed=1;" edge="1" parent="1" source="QrRaKI6YHNApYZS7EBK--30">
          <mxGeometry width="50" height="50" relative="1" as="geometry">
            <mxPoint x="628" y="459" as="sourcePoint" />
            <mxPoint x="660" y="523" as="targetPoint" />
          </mxGeometry>
        </mxCell>
        <mxCell id="QrRaKI6YHNApYZS7EBK--58" value="&amp;lt;&amp;lt;Includes&amp;gt;&amp;gt;" style="edgeLabel;html=1;align=center;verticalAlign=middle;resizable=0;points=[];" vertex="1" connectable="0" parent="1">
          <mxGeometry x="679.9957142857143" y="486" as="geometry">
            <mxPoint x="-18" y="-1" as="offset" />
          </mxGeometry>
        </mxCell>
        <mxCell id="QrRaKI6YHNApYZS7EBK--59" value="Admin" style="shape=umlActor;verticalLabelPosition=bottom;verticalAlign=top;html=1;outlineConnect=0;fillColor=#FFFFFF;" vertex="1" parent="1">
          <mxGeometry x="215" y="560" width="30" height="60" as="geometry" />
        </mxCell>
        <mxCell id="QrRaKI6YHNApYZS7EBK--60" value="" style="endArrow=classic;html=1;rounded=0;entryX=0;entryY=0.5;entryDx=0;entryDy=0;" edge="1" parent="1" target="SSoZlEEdxV4zL4xD8buy-5">
          <mxGeometry width="50" height="50" relative="1" as="geometry">
            <mxPoint x="230" y="600" as="sourcePoint" />
            <mxPoint x="400" y="660" as="targetPoint" />
          </mxGeometry>
        </mxCell>
        <mxCell id="QrRaKI6YHNApYZS7EBK--61" value="MFA" style="ellipse;whiteSpace=wrap;html=1;fillColor=#FFFFFF;" vertex="1" parent="1">
          <mxGeometry x="400" y="580" width="120" height="40" as="geometry" />
        </mxCell>
        <mxCell id="QrRaKI6YHNApYZS7EBK--62" value="" style="endArrow=classic;html=1;rounded=0;dashed=1;" edge="1" parent="1">
          <mxGeometry width="50" height="50" relative="1" as="geometry">
            <mxPoint x="601" y="560" as="sourcePoint" />
            <mxPoint x="520" y="590" as="targetPoint" />
          </mxGeometry>
        </mxCell>
        <mxCell id="QrRaKI6YHNApYZS7EBK--63" value="&amp;lt;&amp;lt;Threatens&amp;gt;&amp;gt;" style="edgeLabel;html=1;align=center;verticalAlign=middle;resizable=0;points=[];" vertex="1" connectable="0" parent="1">
          <mxGeometry x="569.9957142857143" y="577" as="geometry">
            <mxPoint x="-12" y="-11" as="offset" />
          </mxGeometry>
        </mxCell>
        <mxCell id="QrRaKI6YHNApYZS7EBK--64" value="&amp;lt;&amp;lt;Mitigates&amp;gt;&amp;gt;" style="edgeLabel;html=1;align=center;verticalAlign=middle;resizable=0;points=[];" vertex="1" connectable="0" parent="1">
          <mxGeometry x="589.9957142857143" y="630" as="geometry">
            <mxPoint x="-8" y="-3" as="offset" />
          </mxGeometry>
        </mxCell>
        <mxCell id="QrRaKI6YHNApYZS7EBK--65" value="" style="endArrow=none;html=1;rounded=0;exitX=1;exitY=0.5;exitDx=0;exitDy=0;" edge="1" parent="1" source="okeo2Aa4OqrN3XAgRoa3-7" target="okeo2Aa4OqrN3XAgRoa3-4">
          <mxGeometry width="50" height="50" relative="1" as="geometry">
            <mxPoint x="750" y="251" as="sourcePoint" />
            <mxPoint x="800" y="201" as="targetPoint" />
          </mxGeometry>
        </mxCell>
        <mxCell id="QrRaKI6YHNApYZS7EBK--68" value="" style="endArrow=classic;html=1;rounded=0;entryX=0.423;entryY=0.111;entryDx=0;entryDy=0;entryPerimeter=0;dashed=1;exitX=0.604;exitY=1.033;exitDx=0;exitDy=0;exitPerimeter=0;" edge="1" parent="1" source="QrRaKI6YHNApYZS7EBK--61">
          <mxGeometry width="50" height="50" relative="1" as="geometry">
            <mxPoint x="384" y="603" as="sourcePoint" />
            <mxPoint x="435" y="672" as="targetPoint" />
          </mxGeometry>
        </mxCell>
        <mxCell id="QrRaKI6YHNApYZS7EBK--69" value="&amp;lt;&amp;lt;Includes&amp;gt;&amp;gt;" style="edgeLabel;html=1;align=center;verticalAlign=middle;resizable=0;points=[];" vertex="1" connectable="0" parent="1">
          <mxGeometry x="467.9957142857142" y="638" as="geometry">
            <mxPoint x="-12" y="1" as="offset" />
          </mxGeometry>
        </mxCell>
      </root>
    </mxGraphModel>
  </diagram>
</mxfile>
